<svg xmlns="http://www.w3.org/2000/svg" xmlns:xlink="http://www.w3.org/1999/xlink" width="1950" zoomAndPan="magnify" viewBox="0 0 1462.5 277.499997" height="370" preserveAspectRatio="xMidYMid meet" version="1.0"><defs><g/></defs><g fill="#000000" fill-opacity="1"><g transform="translate(451.87539, 214.149318)"><g><path d="M 20.8125 0 L 20.8125 -123.828125 C 20.8125 -147.410156 33.296875 -159.203125 58.265625 -159.203125 L 81.78125 -159.203125 C 103.570312 -159.203125 121.992188 -151.019531 137.046875 -134.65625 C 150.847656 -119.53125 157.75 -100.832031 157.75 -78.5625 C 157.75 -56.289062 150.847656 -37.59375 137.046875 -22.46875 C 122.265625 -6.101562 103.84375 2.078125 81.78125 2.078125 L 60.359375 2.078125 L 60.359375 -16.65625 L 81.78125 -16.65625 C 97.320312 -16.65625 110.609375 -22.6875 121.640625 -34.75 C 131.835938 -45.925781 136.9375 -60.53125 136.9375 -78.5625 C 136.9375 -96.601562 131.835938 -111.207031 121.640625 -122.375 C 110.609375 -134.445312 97.320312 -140.484375 81.78125 -140.484375 L 58.265625 -140.484375 C 47.171875 -140.484375 41.625 -134.929688 41.625 -123.828125 L 41.625 0 Z M 20.8125 0 "/></g></g><g transform="translate(620.03169, 214.149318)"><g><path d="M 106.25 -12.90625 C 95.488281 -2.914062 82.546875 2.078125 67.421875 2.078125 C 52.304688 2.078125 39.367188 -2.914062 28.609375 -12.90625 C 16.472656 -24.144531 10.40625 -38.921875 10.40625 -57.234375 C 10.40625 -75.546875 16.472656 -90.320312 28.609375 -101.5625 C 39.367188 -111.550781 52.304688 -116.546875 67.421875 -116.546875 C 80.671875 -116.546875 91.148438 -113.421875 98.859375 -107.171875 C 107.523438 -100.171875 111.859375 -91.15625 111.859375 -80.125 C 111.859375 -55.84375 91.046875 -43.703125 49.421875 -43.703125 L 49.421875 -58.265625 C 78.554688 -58.265625 93.125 -65.550781 93.125 -80.125 C 93.125 -86.09375 90.59375 -90.984375 85.53125 -94.796875 C 80.957031 -98.191406 74.921875 -99.890625 67.421875 -99.890625 C 56.460938 -99.890625 47.34375 -95.9375 40.0625 -88.03125 C 32.78125 -80.125 29.140625 -69.859375 29.140625 -57.234375 C 29.140625 -44.609375 32.78125 -34.335938 40.0625 -26.421875 C 47.34375 -18.515625 56.460938 -14.5625 67.421875 -14.5625 C 78.390625 -14.5625 87.515625 -18.519531 94.796875 -26.4375 Z M 106.25 -12.90625 "/></g></g><g transform="translate(744.379943, 214.149318)"><g><path d="M 58.265625 2.078125 C 58.265625 2.078125 58.265625 -3.46875 58.265625 -14.5625 C 70.484375 -14.5625 80.265625 -18.515625 87.609375 -26.421875 C 94.960938 -34.335938 98.640625 -44.609375 98.640625 -57.234375 C 98.640625 -69.859375 94.925781 -80.125 87.5 -88.03125 C 80.082031 -95.9375 69.644531 -99.890625 56.1875 -99.890625 C 45.09375 -99.890625 39.546875 -93.648438 39.546875 -81.171875 L 39.546875 42.65625 L 20.8125 42.65625 L 20.8125 -81.171875 C 20.8125 -104.753906 32.601562 -116.546875 56.1875 -116.546875 C 74.082031 -116.546875 88.410156 -111.550781 99.171875 -101.5625 C 111.304688 -90.320312 117.375 -75.546875 117.375 -57.234375 C 117.375 -38.921875 111.304688 -24.144531 99.171875 -12.90625 C 88.410156 -2.914062 74.773438 2.078125 58.265625 2.078125 Z M 58.265625 2.078125 "/></g></g><g transform="translate(872.162083, 214.149318)"><g><path d="M 40.0625 -26.421875 C 47.34375 -18.515625 56.460938 -14.5625 67.421875 -14.5625 C 78.390625 -14.5625 87.515625 -18.515625 94.796875 -26.421875 C 102.078125 -34.335938 105.71875 -44.609375 105.71875 -57.234375 C 105.71875 -69.859375 102.078125 -80.125 94.796875 -88.03125 C 87.515625 -95.9375 78.390625 -99.890625 67.421875 -99.890625 C 56.460938 -99.890625 47.34375 -95.9375 40.0625 -88.03125 C 32.78125 -80.125 29.140625 -69.859375 29.140625 -57.234375 C 29.140625 -44.609375 32.78125 -34.335938 40.0625 -26.421875 Z M 106.25 -12.90625 C 95.488281 -2.914062 82.546875 2.078125 67.421875 2.078125 C 52.304688 2.078125 39.367188 -2.914062 28.609375 -12.90625 C 16.472656 -24.144531 10.40625 -38.921875 10.40625 -57.234375 C 10.40625 -75.546875 16.472656 -90.320312 28.609375 -101.5625 C 39.367188 -111.550781 52.304688 -116.546875 67.421875 -116.546875 C 82.546875 -116.546875 95.488281 -111.550781 106.25 -101.5625 C 118.382812 -90.320312 124.453125 -75.546875 124.453125 -57.234375 C 124.453125 -38.921875 118.382812 -24.144531 106.25 -12.90625 Z M 106.25 -12.90625 "/></g></g><g transform="translate(1007.020106, 214.149318)"><g><path d="M 44.4375 2.078125 C 31.113281 2.078125 19.078125 -2.742188 8.328125 -12.390625 L 20.921875 -25.390625 C 27.503906 -18.171875 35.863281 -14.5625 46 -14.5625 C 53.488281 -14.5625 59.519531 -16.332031 64.09375 -19.875 C 69.019531 -23.6875 71.484375 -28.507812 71.484375 -34.34375 C 71.484375 -42.25 66.660156 -47.972656 57.015625 -51.515625 L 45.78125 -55.671875 C 27.8125 -62.328125 18.828125 -73.078125 18.828125 -87.921875 C 18.828125 -96.179688 22.226562 -103.296875 29.03125 -109.265625 C 34.789062 -114.117188 42.25 -116.546875 51.40625 -116.546875 C 63.332031 -116.546875 73.285156 -112.207031 81.265625 -103.53125 L 68.671875 -90.53125 C 63.609375 -96.769531 57.785156 -99.890625 51.203125 -99.890625 C 47.242188 -99.890625 44.085938 -99.054688 41.734375 -97.390625 C 38.953125 -95.453125 37.5625 -92.4375 37.5625 -88.34375 C 37.5625 -82.101562 42.519531 -77.070312 52.4375 -73.25 L 66.390625 -67.84375 C 82.273438 -61.664062 90.21875 -51.191406 90.21875 -36.421875 C 90.21875 -25.597656 86.472656 -16.648438 78.984375 -9.578125 C 70.722656 -1.804688 59.207031 2.078125 44.4375 2.078125 Z M 44.4375 2.078125 "/></g></g><g transform="translate(1107.643338, 214.149318)"><g><path d="M 20.609375 -129.90625 C 17.972656 -132.582031 16.65625 -135.828125 16.65625 -139.640625 C 16.65625 -143.460938 17.972656 -146.707031 20.609375 -149.375 C 23.242188 -152.039062 26.429688 -153.375 30.171875 -153.375 C 33.921875 -153.375 37.113281 -152.039062 39.75 -149.375 C 42.382812 -146.707031 43.703125 -143.460938 43.703125 -139.640625 C 43.703125 -135.828125 42.382812 -132.582031 39.75 -129.90625 C 37.113281 -127.238281 33.921875 -125.90625 30.171875 -125.90625 C 26.429688 -125.90625 23.242188 -127.238281 20.609375 -129.90625 Z M 20.8125 0 L 20.8125 -114.46875 L 39.546875 -114.46875 L 39.546875 0 Z M 20.8125 0 "/></g></g><g transform="translate(1167.996466, 214.149318)"><g><path d="M 20.8125 0 L 20.8125 -79.078125 C 20.8125 -102.671875 32.601562 -114.46875 56.1875 -114.46875 L 75.96875 -114.46875 L 75.96875 -97.8125 L 56.1875 -97.8125 C 45.09375 -97.8125 39.546875 -91.566406 39.546875 -79.078125 L 39.546875 0 Z M 20.8125 -157.125 L 39.546875 -157.125 L 39.546875 -120.703125 L 20.8125 -120.703125 Z M 20.8125 -157.125 "/></g></g></g><path fill="#000000" d="M 230.882812 220.449219 C 204.824219 212.496094 184.1875 191.226562 177.027344 164.9375 C 176.144531 161.707031 172.808594 159.789062 169.578125 160.679688 C 166.34375 161.5625 164.4375 164.898438 165.316406 168.136719 C 173.566406 198.410156 197.328125 222.90625 227.339844 232.066406 C 227.929688 232.25 228.527344 232.335938 229.109375 232.335938 C 231.710938 232.335938 234.113281 230.648438 234.914062 228.03125 C 235.894531 224.824219 234.085938 221.429688 230.882812 220.449219 Z M 230.882812 220.449219 " fill-opacity="1" fill-rule="nonzero"/><path fill="#000000" d="M 170.84375 104.253906 C 169.410156 107.285156 170.707031 110.90625 173.734375 112.339844 C 176.765625 113.777344 180.378906 112.480469 181.8125 109.449219 C 195.027344 81.515625 223.503906 63.46875 254.347656 63.46875 C 298.554688 63.46875 334.523438 99.460938 334.523438 143.707031 C 334.523438 174.585938 316.488281 203.082031 288.578125 216.304688 C 285.546875 217.742188 284.253906 221.359375 285.691406 224.390625 C 286.726562 226.585938 288.90625 227.867188 291.179688 227.867188 C 292.046875 227.867188 292.929688 227.675781 293.769531 227.28125 C 325.894531 212.058594 346.65625 179.253906 346.65625 143.707031 C 346.65625 92.769531 305.25 51.324219 254.347656 51.324219 C 218.832031 51.324219 186.058594 72.101562 170.84375 104.253906 Z M 170.84375 104.253906 " fill-opacity="1" fill-rule="nonzero"/><path fill="#eb4960" d="M 366.113281 173.769531 C 364.679688 170.738281 361.074219 169.449219 358.03125 170.878906 C 355.003906 172.316406 353.710938 175.9375 355.148438 178.96875 C 369.003906 208.253906 370.757812 232.269531 359.828125 243.199219 C 348.890625 254.140625 324.902344 252.382812 295.636719 238.511719 C 270.070312 226.453125 242.195312 206.007812 217.148438 180.9375 C 192.097656 155.863281 171.667969 127.964844 159.621094 102.378906 C 145.765625 73.09375 144.015625 49.078125 154.941406 38.140625 C 165.867188 27.203125 189.863281 28.957031 219.121094 42.828125 C 222.152344 44.265625 225.769531 42.964844 227.203125 39.9375 C 228.636719 36.90625 227.34375 33.289062 224.316406 31.847656 C 189.195312 15.207031 161.507812 14.390625 146.359375 29.554688 C 131.207031 44.71875 132.023438 72.425781 148.648438 107.566406 C 161.269531 134.378906 182.550781 163.484375 208.570312 189.527344 C 234.578125 215.5625 263.660156 236.863281 290.453125 249.492188 C 308.871094 258.226562 325.242188 262.601562 338.835938 262.601562 C 351.160156 262.597656 361.203125 259 368.40625 251.785156 C 383.558594 236.625 382.742188 208.917969 366.113281 173.769531 Z M 366.113281 173.769531 " fill-opacity="1" fill-rule="nonzero"/></svg>